{
    "asset" : {
        "generator" : "Khronos glTF Blender I/O v1.5.17",
        "version" : "2.0"
    },
    "scene" : 0,
    "scenes" : [
        {
            "name" : "Scene",
            "nodes" : [
                7
            ]
        }
    ],
    "nodes" : [
        {
            "mesh" : 0,
            "name" : "a00"
        },
        {
            "mesh" : 1,
            "name" : "a01"
        },
        {
            "mesh" : 2,
            "name" : "a02"
        },
        {
            "mesh" : 3,
            "name" : "a03"
        },
        {
            "mesh" : 4,
            "name" : "a04"
        },
        {
            "mesh" : 5,
            "name" : "a05"
        },
        {
            "mesh" : 6,
            "name" : "a06"
        },
        {
            "children" : [
                0,
                1,
                2,
                3,
                4,
                5,
                6
            ],
            "name" : "agilus",
            "scale" : [
                0.0010000000474974513,
                0.0010000000474974513,
                0.0010000000474974513
            ]
        }
    ],
    "materials" : [
        {
            "doubleSided" : true,
            "name" : "Color #666666ff",
            "pbrMetallicRoughness" : {
                "baseColorFactor" : [
                    0.4000000059604645,
                    0.4000000059604645,
                    0.4000000059604645,
                    1
                ],
                "metallicFactor" : 0,
                "roughnessFactor" : 0.5527864098548889
            }
        },
        {
            "doubleSided" : true,
            "name" : "Color #ccccccff",
            "pbrMetallicRoughness" : {
                "baseColorFactor" : [
                    0.800000011920929,
                    0.800000011920929,
                    0.800000011920929,
                    1
                ],
                "metallicFactor" : 0,
                "roughnessFactor" : 0.5527864098548889
            }
        },
        {
            "doubleSided" : true,
            "name" : "Color #ff7f00ff",
            "pbrMetallicRoughness" : {
                "baseColorFactor" : [
                    1,
                    0.49803921580314636,
                    0,
                    1
                ],
                "metallicFactor" : 0,
                "roughnessFactor" : 0.5527864098548889
            }
        },
        {
            "doubleSided" : true,
            "name" : "Color #333333ff",
            "pbrMetallicRoughness" : {
                "baseColorFactor" : [
                    0.20000000298023224,
                    0.20000000298023224,
                    0.20000000298023224,
                    1
                ],
                "metallicFactor" : 0,
                "roughnessFactor" : 0.5527864098548889
            }
        }
    ],
    "meshes" : [
        {
            "name" : "a0",
            "primitives" : [
                {
                    "attributes" : {
                        "POSITION" : 0,
                        "NORMAL" : 1
                    },
                    "indices" : 2,
                    "material" : 0
                }
            ]
        },
        {
            "name" : "a01",
            "primitives" : [
                {
                    "attributes" : {
                        "POSITION" : 3,
                        "NORMAL" : 4
                    },
                    "indices" : 5,
                    "material" : 1
                }
            ]
        },
        {
            "name" : "a02",
            "primitives" : [
                {
                    "attributes" : {
                        "POSITION" : 6,
                        "NORMAL" : 7
                    },
                    "indices" : 8,
                    "material" : 2
                },
                {
                    "attributes" : {
                        "POSITION" : 9,
                        "NORMAL" : 10
                    },
                    "indices" : 11,
                    "material" : 1
                }
            ]
        },
        {
            "name" : "a03",
            "primitives" : [
                {
                    "attributes" : {
                        "POSITION" : 12,
                        "NORMAL" : 13
                    },
                    "indices" : 14,
                    "material" : 1
                }
            ]
        },
        {
            "name" : "a04",
            "primitives" : [
                {
                    "attributes" : {
                        "POSITION" : 15,
                        "NORMAL" : 16
                    },
                    "indices" : 17,
                    "material" : 2
                },
                {
                    "attributes" : {
                        "POSITION" : 18,
                        "NORMAL" : 19
                    },
                    "indices" : 20,
                    "material" : 1
                }
            ]
        },
        {
            "name" : "a05",
            "primitives" : [
                {
                    "attributes" : {
                        "POSITION" : 21,
                        "NORMAL" : 22
                    },
                    "indices" : 23,
                    "material" : 1
                }
            ]
        },
        {
            "name" : "a06",
            "primitives" : [
                {
                    "attributes" : {
                        "POSITION" : 24,
                        "NORMAL" : 25
                    },
                    "indices" : 26,
                    "material" : 3
                }
            ]
        }
    ],
    "accessors" : [
        {
            "bufferView" : 0,
            "componentType" : 5126,
            "count" : 6122,
            "max" : [
                109.5,
                246.8076934814453,
                109.465087890625
            ],
            "min" : [
                -243.50982666015625,
                -1.3563487138990027e-11,
                -109.465087890625
            ],
            "type" : "VEC3"
        },
        {
            "bufferView" : 1,
            "componentType" : 5126,
            "count" : 6122,
            "type" : "VEC3"
        },
        {
            "bufferView" : 2,
            "componentType" : 5123,
            "count" : 12918,
            "type" : "SCALAR"
        },
        {
            "bufferView" : 3,
            "componentType" : 5126,
            "count" : 3786,
            "max" : [
                132.91856384277344,
                484.9826354980469,
                139.47682189941406
            ],
            "min" : [
                -113,
                219.6999969482422,
                -134.16293334960938
            ],
            "type" : "VEC3"
        },
        {
            "bufferView" : 4,
            "componentType" : 5126,
            "count" : 3786,
            "type" : "VEC3"
        },
        {
            "bufferView" : 5,
            "componentType" : 5123,
            "count" : 11454,
            "type" : "SCALAR"
        },
        {
            "bufferView" : 6,
            "componentType" : 5126,
            "count" : 58,
            "max" : [
                -44.21003341674805,
                577.50634765625,
                -3.500154495239258
            ],
            "min" : [
                -56.714290618896484,
                470.7230224609375,
                -21.84702491760254
            ],
            "type" : "VEC3"
        },
        {
            "bufferView" : 7,
            "componentType" : 5126,
            "count" : 58,
            "type" : "VEC3"
        },
        {
            "bufferView" : 8,
            "componentType" : 5123,
            "count" : 138,
            "type" : "SCALAR"
        },
        {
            "bufferView" : 9,
            "componentType" : 5126,
            "count" : 5892,
            "max" : [
                115.34530639648438,
                1026.593505859375,
                130.02928161621094
            ],
            "min" : [
                -65.49769592285156,
                309.5307922363281,
                -130.02928161621094
            ],
            "type" : "VEC3"
        },
        {
            "bufferView" : 10,
            "componentType" : 5126,
            "count" : 5892,
            "type" : "VEC3"
        },
        {
            "bufferView" : 11,
            "componentType" : 5123,
            "count" : 16536,
            "type" : "SCALAR"
        },
        {
            "bufferView" : 12,
            "componentType" : 5126,
            "count" : 2615,
            "max" : [
                240,
                1044.5,
                75.5
            ],
            "min" : [
                -54.939693450927734,
                880.0509033203125,
                -66.5
            ],
            "type" : "VEC3"
        },
        {
            "bufferView" : 13,
            "componentType" : 5126,
            "count" : 2615,
            "type" : "VEC3"
        },
        {
            "bufferView" : 14,
            "componentType" : 5123,
            "count" : 7530,
            "type" : "SCALAR"
        },
        {
            "bufferView" : 15,
            "componentType" : 5126,
            "count" : 156,
            "max" : [
                540.1365356445312,
                994.000732421875,
                77.76741027832031
            ],
            "min" : [
                418.09722900390625,
                975.6669311523438,
                -81.72708892822266
            ],
            "type" : "VEC3"
        },
        {
            "bufferView" : 16,
            "componentType" : 5126,
            "count" : 156,
            "type" : "VEC3"
        },
        {
            "bufferView" : 17,
            "componentType" : 5123,
            "count" : 300,
            "type" : "SCALAR"
        },
        {
            "bufferView" : 18,
            "componentType" : 5126,
            "count" : 5125,
            "max" : [
                588.5108032226562,
                1042,
                77.76741027832031
            ],
            "min" : [
                230,
                915.0287475585938,
                -81.72708892822266
            ],
            "type" : "VEC3"
        },
        {
            "bufferView" : 19,
            "componentType" : 5126,
            "count" : 5125,
            "type" : "VEC3"
        },
        {
            "bufferView" : 20,
            "componentType" : 5123,
            "count" : 13938,
            "type" : "SCALAR"
        },
        {
            "bufferView" : 21,
            "componentType" : 5126,
            "count" : 2572,
            "max" : [
                612,
                1028.56103515625,
                54.5
            ],
            "min" : [
                489.7314147949219,
                941.5086669921875,
                -48
            ],
            "type" : "VEC3"
        },
        {
            "bufferView" : 22,
            "componentType" : 5126,
            "count" : 2572,
            "type" : "VEC3"
        },
        {
            "bufferView" : 23,
            "componentType" : 5123,
            "count" : 5748,
            "type" : "SCALAR"
        },
        {
            "bufferView" : 24,
            "componentType" : 5126,
            "count" : 1077,
            "max" : [
                630,
                1026.5,
                41.5
            ],
            "min" : [
                607,
                943.5,
                -41.5
            ],
            "type" : "VEC3"
        },
        {
            "bufferView" : 25,
            "componentType" : 5126,
            "count" : 1077,
            "type" : "VEC3"
        },
        {
            "bufferView" : 26,
            "componentType" : 5123,
            "count" : 2934,
            "type" : "SCALAR"
        }
    ],
    "bufferViews" : [
        {
            "buffer" : 0,
            "byteLength" : 73464,
            "byteOffset" : 0
        },
        {
            "buffer" : 0,
            "byteLength" : 73464,
            "byteOffset" : 73464
        },
        {
            "buffer" : 0,
            "byteLength" : 25836,
            "byteOffset" : 146928
        },
        {
            "buffer" : 0,
            "byteLength" : 45432,
            "byteOffset" : 172764
        },
        {
            "buffer" : 0,
            "byteLength" : 45432,
            "byteOffset" : 218196
        },
        {
            "buffer" : 0,
            "byteLength" : 22908,
            "byteOffset" : 263628
        },
        {
            "buffer" : 0,
            "byteLength" : 696,
            "byteOffset" : 286536
        },
        {
            "buffer" : 0,
            "byteLength" : 696,
            "byteOffset" : 287232
        },
        {
            "buffer" : 0,
            "byteLength" : 276,
            "byteOffset" : 287928
        },
        {
            "buffer" : 0,
            "byteLength" : 70704,
            "byteOffset" : 288204
        },
        {
            "buffer" : 0,
            "byteLength" : 70704,
            "byteOffset" : 358908
        },
        {
            "buffer" : 0,
            "byteLength" : 33072,
            "byteOffset" : 429612
        },
        {
            "buffer" : 0,
            "byteLength" : 31380,
            "byteOffset" : 462684
        },
        {
            "buffer" : 0,
            "byteLength" : 31380,
            "byteOffset" : 494064
        },
        {
            "buffer" : 0,
            "byteLength" : 15060,
            "byteOffset" : 525444
        },
        {
            "buffer" : 0,
            "byteLength" : 1872,
            "byteOffset" : 540504
        },
        {
            "buffer" : 0,
            "byteLength" : 1872,
            "byteOffset" : 542376
        },
        {
            "buffer" : 0,
            "byteLength" : 600,
            "byteOffset" : 544248
        },
        {
            "buffer" : 0,
            "byteLength" : 61500,
            "byteOffset" : 544848
        },
        {
            "buffer" : 0,
            "byteLength" : 61500,
            "byteOffset" : 606348
        },
        {
            "buffer" : 0,
            "byteLength" : 27876,
            "byteOffset" : 667848
        },
        {
            "buffer" : 0,
            "byteLength" : 30864,
            "byteOffset" : 695724
        },
        {
            "buffer" : 0,
            "byteLength" : 30864,
            "byteOffset" : 726588
        },
        {
            "buffer" : 0,
            "byteLength" : 11496,
            "byteOffset" : 757452
        },
        {
            "buffer" : 0,
            "byteLength" : 12924,
            "byteOffset" : 768948
        },
        {
            "buffer" : 0,
            "byteLength" : 12924,
            "byteOffset" : 781872
        },
        {
            "buffer" : 0,
            "byteLength" : 5868,
            "byteOffset" : 794796
        }
    ],
    "buffers" : [
        {
            "byteLength" : 800664,
            "uri" : "data:application/octet-stream;base64,"
        }
    ]
}
